<?xml version="1.0" encoding="utf-8"?>
<!-- Generator: Adobe Illustrator 26.0.2, SVG Export Plug-In . SVG Version: 6.00 Build 0)  -->
<svg version="1.1" id="Layer_1" xmlns="http://www.w3.org/2000/svg" xmlns:xlink="http://www.w3.org/1999/xlink" x="0px" y="0px"
	 viewBox="0 0 178.9 97.5" style="enable-background:new 0 0 178.9 97.5;" xml:space="preserve">
<style type="text/css">
	.st0{fill:#4EB2BC;}
	.st1{fill:#01838E;}
	.st2{fill:#005661;enable-background:new    ;}
	.st3{fill:#00363A;}
</style>
<path id="Path_188" class="st0" d="M28.4,32.4C12.1,48.9,3,71.2,3.1,94.3c0,0.4,0,0.7,0,1.1h75C78,94.9,78,94.3,78,93.7
	c0-3.2,1-6.2,3-8.8L28.4,32.4z"/>
<path id="Path_187" class="st1" d="M29.4,31.2l52.5,52.5c2.1-1.9,4.6-3.1,7.3-3.5V6.6C66.9,6.9,45.5,15.7,29.4,31.2z"/>
<path id="Path_189" class="st2" d="M90.8,6.6v73.3c2.9,0.2,5.7,1.4,8,3.3l51.5-51.5C134.3,16.1,113,7.2,90.8,6.6z"/>
<path id="Path_190" class="st3" d="M151.4,33L99.9,84.5c2,2.5,3.1,5.7,3.1,8.9c0,0.6,0,1.1-0.1,1.7h73c0-0.4,0-0.7,0-1.1
	C176,71.3,167.2,49.4,151.4,33z"/>
</svg>
