<?xml version="1.0" encoding="UTF-8" standalone="no"?>
<!-- Generator: Adobe Illustrator 26.0.2, SVG Export Plug-In . SVG Version: 6.00 Build 0)  -->

<svg
        version="1.1"
        x="0px"
        y="0px"
        viewBox="0 0 450 225"
        xml:space="preserve"
        width="450"
        height="225"
        xmlns="http://www.w3.org/2000/svg">
	<g transform="translate(225,225)">
		<path d="M -161.20614133104357 -156.96362635067908 A 225 225 0 0 0 -225 2.7554552980815446e-14 L -30 3.67394039744206e-15 A 30 30 0 0 1 -23.22501235430839 -18.989439200308748 Z" fill="#4DB2BB"/>
		<path d="M -1.9999736626554436 -224.9911111696386 A 225 225 0 0 0 -158.39034996789184 -159.80455887442244 L -20.494443570989514 -21.90839525651129 A 30 30 0 0 1 -1.9985188477017881 -29.93335802103367 Z"
			  fill="#02838E"/>
		<path d="M 158.39034996789195 -159.80455887442233 A 225 225 0 0 0 1.9999736626556657 -224.9911111696386 L 1.998518847701811 -29.933358021033666 A 30 30 0 0 1 20.494443570989517 -21.90839525651129 Z"
			  fill="#025661"/>
		<path d="M 225 1.1161179193627622e-13 A 225 225 0 0 0 161.20614133104365 -156.96362635067902 L 23.225012354308404 -18.98943920030873 A 30 30 0 0 1 30 1.488157225817016e-14 Z"
			  fill="#00363A"/>
	</g>
</svg>
