<?xml version="1.0" encoding="UTF-8" standalone="no"?>
<!-- Generator: Adobe Illustrator 26.0.2, SVG Export Plug-In . SVG Version: 6.00 Build 0)  -->

<svg
   version="1.1"
   id="Layer_1"
   x="0px"
   y="0px"
   viewBox="0 0 329.3 161"
   xml:space="preserve"
   width="329.29999"
   height="161"
   xmlns="http://www.w3.org/2000/svg">
<style
   type="text/css"
   id="style2">
	.st0{fill:#00363A;}
	.st1{fill:#025661;}
	.st2{fill:#02838E;}
	.st3{fill:#4DB2BB;}
</style>
<path
   class="st0"
   d="M 190,161 H 329.3 C 328,119.7 311.5,80.2 282.7,50.3 l -98.2,98.2 c 2.8,3.7 4.7,8 5.5,12.5 z"
   id="path4" />
<path
   class="st1"
   d="M 280.5,47.9 C 250,18.3 209.5,1.2 167,0 v 139.8 c 5.6,0.5 10.9,2.7 15.3,6.3 z"
   id="path6" />
<path
   class="st2"
   d="M 164,140.4 V 0 C 121.5,0.6 80.7,17.4 50,46.9 L 150.1,147 c 3.9,-3.5 8.7,-5.8 13.9,-6.6 z"
   id="path8" />
<path
   class="st3"
   d="m 143.2,161 c 0.8,-4.2 2.6,-8.3 5.2,-11.7 L 48.1,49.2 C 18.5,79.2 1.4,119.1 0,161 Z"
   id="path10" />
</svg>
