<?xml version="1.0" encoding="UTF-8" standalone="no"?>
<svg version="1.1" id="Layer_1"
   x="0px" y="0px"
   viewBox="0 0 65.750354 18.668262"
   xml:space="preserve"
   width="65.750351" height="18.668262"
   xmlns="http://www.w3.org/2000/svg">
<style
   type="text/css"
   id="style81">
	.st0{fill:#091715;stroke:#B6E2EB;stroke-miterlimit:4.0001;}
</style>
<path
   id="Path_199"
   class="st0"
   d="m 43.000106,16.062676 c -0.8,-0.3 -5.8,-1.1 -6.6,-1.2 -6.7,-1.1 -13.5,-2.2 -20.3,-3.4 -4.8,-0.8 -9.6000003,-1.6000003 -14.4000003,-2.4000003 1.1,-0.5 10.0000003,-1.9 13.4000003,-2.4 2.3,-0.3 4.6,-0.7 7,-1.1 2.3,-0.3 4.6,-0.6 6.8,-1 2.8,-0.5 5.7,-0.8 8.4,-1.3 2.7,-0.3 5.3,-0.9 8,-1.2 3.2,-0.5 6.3,-1 9.5,-1.39999996 3.5,-0.7 7.1,0.89999996 9,3.99999996 2,2.9 1.9,6.7000003 -0.1,9.5000003 -1.8,3 -5.4,4.6 -8.8,3.8 -4.6,-0.7 -11.2,-1.8 -11.9,-1.9 z m 15.2,-2.1 c 2.6,-1 3.8,-3.9 2.8,-6.5000003 0,0 0,-0.1 0,-0.1 -1.1,-2.6 -4,-3.8 -6.6,-2.7 -2.5,1.1 -3.7,3.9 -2.7,6.4000003 1,2.6 3.9,3.9 6.5,2.9 0,0 0,0 0,0 z" />
</svg>
