<?xml version="1.0" encoding="UTF-8" standalone="no"?>
<svg
   version="1.1"
   id="Layer_1"
   x="0px"
   y="0px"
   viewBox="0 0 169.0579 48.000003"
   xml:space="preserve"
   width="169.05789"
   height="48.000004"
   xmlns="http://www.w3.org/2000/svg">
<style
   type="text/css"
   id="style81">
	.st0{fill:#091715;stroke:#B6E2EB;stroke-miterlimit:4.0001;}
</style>
<path
   id="Path_199"
   class="st0"
   d="M 110.56225,41.300496 C 108.50528,40.529135 95.649243,38.472167 93.592277,38.215046 76.365176,35.386716 58.880957,32.558386 41.396736,29.472936 29.054932,27.415968 16.713129,25.359 4.3713269,23.302033 7.1996566,22.016428 30.083416,18.416736 38.825527,17.131132 44.739308,16.359769 50.653088,15.331285 56.82399,14.302802 62.73777,13.531439 68.65155,12.760076 74.308209,11.731593 81.507595,10.445989 88.9641,9.6746259 95.906364,8.3890214 102.84862,7.6176588 109.53377,6.0749334 116.47603,5.3035708 c 8.22787,-1.2856049 16.19862,-2.571209 24.42648,-3.5996924 8.99924,-1.79984642 18.2556,2.3140875 23.14089,10.2848356 5.14242,7.456506 4.8853,17.227101 -0.25712,24.426486 -4.62817,7.713626 -13.88453,11.827561 -22.62665,9.770594 -11.82756,-1.799846 -28.79753,-4.628176 -30.59738,-4.885298 z m 39.08238,-5.399538 c 6.68514,-2.571209 9.7706,-10.027714 7.19939,-16.712859 0,0 0,-0.257121 0,-0.257121 -2.82834,-6.685143 -10.28484,-9.7705939 -16.96998,-6.942264 -6.42802,2.82833 -9.51348,10.027714 -6.94227,16.455738 2.57121,6.685144 10.02771,10.027715 16.71286,7.456506 0,0 0,0 0,0 z"
   style="stroke-width:2.57121" />
</svg>
