<?xml version="1.0" encoding="utf-8"?>
<!-- Generator: Adobe Illustrator 26.0.2, SVG Export Plug-In . SVG Version: 6.00 Build 0)  -->
<svg version="1.1" id="Layer_1" xmlns="http://www.w3.org/2000/svg" xmlns:xlink="http://www.w3.org/1999/xlink" x="0px" y="0px"
	 viewBox="0 0 66.2 28" style="enable-background:new 0 0 66.2 28;" xml:space="preserve">
<style type="text/css">
	.st0{fill:#091715;stroke:#B6E2EB;stroke-miterlimit:4.0001;}
</style>
<path id="Path_199" class="st0" d="M43.1,23.1c-0.8-0.3-5.8-1.1-6.6-1.2c-6.7-1.1-13.5-2.2-20.3-3.4c-4.8-0.8-9.6-1.6-14.4-2.4
	c1.1-0.5,10-1.9,13.4-2.4c2.3-0.3,4.6-0.7,7-1.1c2.3-0.3,4.6-0.6,6.8-1c2.8-0.5,5.7-0.8,8.4-1.3c2.7-0.3,5.3-0.9,8-1.2
	c3.2-0.5,6.3-1,9.5-1.4c3.5-0.7,7.1,0.9,9,4c2,2.9,1.9,6.7-0.1,9.5c-1.8,3-5.4,4.6-8.8,3.8C50.4,24.3,43.8,23.2,43.1,23.1z M58.3,21
	c2.6-1,3.8-3.9,2.8-6.5c0,0,0-0.1,0-0.1c-1.1-2.6-4-3.8-6.6-2.7c-2.5,1.1-3.7,3.9-2.7,6.4C52.8,20.7,55.7,22,58.3,21
	C58.3,21,58.3,21,58.3,21L58.3,21z"/>
</svg>
